# xmcd
#
# Track frame offsets:
#	150
#	5204
#	19750
#	34302
#	51209
#	66570
#	79861
#	91687
#	101389
#	113574
#	126219
#	137165
#	154145
#	166414
#
# Disc length: 2244 seconds
#
# Revision: 0
# Processed by: cddbd v1.4PL0 Copyright (c) Steve Scherf et al.
# Submitted via: dBpowerAMP V4.0
#
DISCID=b708c20e
DTITLE=Little Roger - Cut it while it's hot
DYEAR=1900
DGENRE=
TTITLE0=Puck's jive
TTITLE1=Reelin' and rockin'
TTITLE2=Don't go no further
TTITLE3=I got mailed... (but you got nailed)
TTITLE4=Don't stay out all night
TTITLE5=I hear you knockin'
TTITLE6=Hold your money
TTITLE7=Something's goin' on in my room
TTITLE8=Knock me a kiss
TTITLE9=Hot yuna muffins
TTITLE10=Blues for Otis
TTITLE11=Nosey neighbors
TTITLE12=Red, red wine
TTITLE13=Puck's bop
EXTD=
EXTT0=
EXTT1=
EXTT2=
EXTT3=
EXTT4=
EXTT5=
EXTT6=
EXTT7=
EXTT8=
EXTT9=
EXTT10=
EXTT11=
EXTT12=
EXTT13=
PLAYORDER=
